<svg version="1.2" xmlns="http://www.w3.org/2000/svg" viewBox="0 0 359 292" width="359" height="292">
	<style>
		.s0 { fill: #1c472d } 
		.s1 { fill: #1f4730 } 
		.s2 { fill: #1e452e } 
		.s3 { fill: #1c462e } 
		.s4 { fill: #204731 } 
		.s5 { fill: #1d462e } 
		.s6 { fill: #163e26 } 
		.s7 { fill: #636b66 } 
		.s8 { fill: #5b635e } 
		.s9 { fill: #0e3a21 } 
		.s10 { fill: #656b65 } 
		.s11 { fill: #676d68 } 
		.s12 { fill: #6c6f6b } 
		.s13 { fill: #5a655d } 
		.s14 { fill: #636b64 } 
		.s15 { fill: #5f6861 } 
		.s16 { fill: #646d68 } 
		.s17 { fill: #5f6862 } 
		.s18 { fill: #606d64 } 
		.s19 { fill: #646c67 } 
		.s20 { fill: #5a6460 } 
		.s21 { fill: #666d68 } 
		.s22 { fill: #5f6662 } 
		.s23 { fill: #687068 } 
		.s24 { fill: #204936 } 
		.s25 { fill: #16422b } 
		.s26 { fill: #0e3e22 } 
		.s27 { fill: #0d4426 } 
		.s28 { fill: #184229 } 
		.s29 { fill: #274e36 } 
		.s30 { fill: #18412b } 
		.s31 { fill: #5b655e } 
		.s32 { fill: #0d4222 } 
		.s33 { fill: #0f3e23 } 
		.s34 { fill: #14432a } 
		.s35 { fill: #646b65 } 
		.s36 { fill: #19462c } 
		.s37 { fill: #113f22 } 
		.s38 { fill: #737876 } 
		.s39 { fill: #676f69 } 
		.s40 { fill: #1e4c37 } 
		.s41 { fill: #0b4021 } 
		.s42 { fill: #13402d } 
		.s43 { fill: #616863 } 
		.s44 { fill: #0a3a1c } 
		.s45 { fill: #5b655d } 
		.s46 { fill: #133f25 } 
		.s47 { fill: #234d37 } 
		.s48 { fill: #616c67 } 
		.s49 { fill: #58645b } 
		.s50 { fill: #123d27 } 
		.s51 { fill: #0a3c20 } 
		.s52 { fill: #0f4124 } 
		.s53 { fill: #113b23 } 
		.s54 { fill: #244a34 } 
		.s55 { fill: #274e39 } 
		.s56 { fill: #2f503c } 
		.s57 { fill: #0b3b21 } 
		.s58 { fill: #676d69 } 
		.s59 { fill: #154027 } 
		.s60 { fill: #234e35 } 
		.s61 { fill: #0f331d } 
		.s62 { fill: #154226 } 
		.s63 { fill: #113722 } 
		.s64 { fill: #6c726d } 
		.s65 { fill: #103f27 } 
		.s66 { fill: #30523f } 
		.s67 { fill: #656c68 } 
		.s68 { fill: #6a6f6a } 
		.s69 { fill: #174329 } 
		.s70 { fill: #646865 } 
		.s71 { fill: #5e6561 } 
		.s72 { fill: #5c675e } 
		.s73 { fill: #5c6360 } 
		.s74 { fill: #646a66 } 
		.s75 { fill: #2e4e3b } 
		.s76 { fill: #214934 } 
		.s77 { fill: #757774 } 
		.s78 { fill: #284c38 } 
		.s79 { fill: #0e4123 } 
		.s80 { fill: #56625a } 
		.s81 { fill: #204934 } 
		.s82 { fill: #535a56 } 
		.s83 { fill: #70726d } 
		.s84 { fill: #556459 } 
		.s85 { fill: #114221 } 
		.s86 { fill: #16412b } 
		.s87 { fill: #133823 } 
		.s88 { fill: #606964 } 
		.s89 { fill: #6d726d } 
		.s90 { fill: #173e22 } 
		.s91 { fill: #666e6a } 
		.s92 { fill: #545d58 } 
		.s93 { fill: #606963 } 
		.s94 { fill: #6b726d } 
		.s95 { fill: #244f39 } 
		.s96 { fill: #285635 } 
		.s97 { fill: #17462a } 
		.s98 { fill: #1d432c } 
		.s99 { fill: #033414 } 
		.s100 { fill: #123d1e } 
		.s101 { fill: #153b24 } 
		.s102 { fill: #043217 } 
		.s103 { fill: #57605c } 
		.s104 { fill: #505854 } 
		.s105 { fill: #646965 } 
		.s106 { fill: #4d6258 } 
		.s107 { fill: #133d23 } 
		.s108 { fill: #696f6c } 
		.s109 { fill: #6a6e6c } 
		.s110 { fill: #183925 } 
		.s111 { fill: #123e25 } 
		.s112 { fill: #5d625e } 
		.s113 { fill: #193f2a } 
		.s114 { fill: #073720 } 
		.s115 { fill: #586159 } 
		.s116 { fill: #6d716e } 
		.s117 { fill: #6a6f6b } 
		.s118 { fill: #54655b } 
		.s119 { fill: #707570 } 
		.s120 { fill: #1a412e } 
		.s121 { fill: #2d563f } 
		.s122 { fill: #123f21 } 
		.s123 { fill: #134226 } 
	</style>
	<path class="s0" d="m178 3q1.97 0 4 0 0.22 1.34 0.45 2.72c2.41 13.41 6.67 32.4 16.55 42.28q0 1.48 0 3c-6.63-0.75-6.63-0.75-10-3 3.22 8.63 6.65 16.65 11.48 24.51 1.3 2.13 2.45 4.25 3.52 6.49q0.99 0 2 0c2 3 2 3 2 6-3.62-0.45-6.83-1.24-10.22-2.54-1.07-0.41-1.07-0.41-2.15-0.83q-0.8-0.31-1.63-0.63 1.58 4.04 3.19 8.06 0.43 1.13 0.88 2.28c2.07 5.15 4.64 9.2 7.93 13.66q0 0.98 0 2 0.99 0 2 0c1.73 1.64 1.73 1.64 3.62 3.81q0.95 1.06 1.92 2.15c1.46 2.04 1.46 2.04 1.46 5.04-6.05-0.55-11.31-1.9-17-4 3.77 10.93 8.23 21.15 17 29q1.2 1.26 2.44 2.56c2.72 2.59 5.39 4.45 8.56 6.44q-0.49 1.48-1 3c-8.95-0.25-17.49-1.08-26.25-2.94-1.21-0.25-1.21-0.25-2.45-0.51-3.86-0.86-6.69-1.75-10.3-3.55 0 8.25 0 16.5 0 25-3.96 0-7.92 0-12 0-1.68-1.68-1.23-3.82-1.32-6.13q-0.06-1.54-0.12-3.13-0.06-1.63-0.12-3.3c-0.07-1.64-0.07-1.64-0.13-3.31q-0.16-4.07-0.31-8.13-1.08 0.46-2.19 0.93c-4.38 1.67-8.89 2.36-13.5 3.19q-1.4 0.28-2.85 0.56c-6.22 1.13-12.14 1.55-18.46 1.32q0-1.97 0-4c1.5-1.2 1.5-1.2 3.56-2.25 4.87-2.8 8.01-6.36 11.44-10.75q0.69-0.88 1.41-1.79c5.09-6.8 8.12-14.13 10.59-22.21-1.45 0.45-1.45 0.45-2.92 0.91q-1.89 0.57-3.83 1.15-1.87 0.57-3.8 1.16c-3.12 0.71-4.54 0.95-7.45-0.22 2.66-4.23 5.45-7.45 9-11 5.73-6.34 11-15.27 11-24q-0.79 0.32-1.61 0.66-1.05 0.41-2.14 0.84-1.04 0.42-2.11 0.84c-2.14 0.66-2.14 0.66-6.14 0.66 0.6-3.46 1.86-5.29 4.13-7.94 6.67-8.35 11.4-17.66 13.87-28.06q-0.9 0.49-1.83 0.99c-2.55 1.18-4.39 1.16-7.17 1.01 0.68-3.53 2.12-6.26 3.88-9.38q0.8-1.45 1.63-2.95c0.74-1.32 0.74-1.32 1.49-2.67 4.49-8.15 6.33-17.1 8.35-26.12q0.78-3.45 1.65-6.88z"/>
	<path class="s1" d="m325 194c2.25-0.06 2.25-0.06 5 1 1.79 2.79 2.81 5.92 4 9q1.43 3.28 2.88 6.56c2.22 5.18 4.25 10.4 6.18 15.69 2 5.46 4.23 10.69 6.96 15.83 0.98 1.92 0.98 1.92 1.98 4.92q2.46 0 5 0 0 1.97 0 4c-6.6 0-13.2 0-20 0q0-1.97 0-4-0.38-2.48-0.87-4.94-0.25-1.24-0.5-2.52c-0.69-3.01-0.69-3.01-2.63-7.54-4.95-0.33-9.9-0.66-15-1q-0.68 2.55-1.37 5.19c-0.99 3.72-2.14 7.25-3.63 10.81q2.46 0.49 5 1 0 1.48 0 3-5.95 0.22-11.9 0.33-3 0.07-6 0.2c-8.38 0.12-13.91-0.63-20.1-6.53-2.3-2.6-2.3-2.6-3.87-5.06q-0.8-1.22-1.62-2.48c-1.51-2.46-1.51-2.46-2.77-5.21-1.99-3.12-1.99-3.12-8.74-3.25 0 5.28 0 10.56 0 16q2.46 0.99 5 2 0 1.97 0 4c-7.26 0-14.52 0-22 0q0-1.97 0-4c1.98-0.5 1.98-0.5 4-1 0.94-5.52 1.13-10.84 1.1-16.43 0-1.32 0-1.32-0.01-2.66q-0.01-4.18-0.03-8.35-0.01-2.84-0.01-5.68-0.02-6.94-0.05-13.88c-2.97-0.5-2.97-0.5-6-1q0-1.48 0-3 6.64-0.19 13.29-0.27 2.25-0.04 4.51-0.11c14.11-0.39 14.11-0.39 18.61 2.72 3.73 3.83 5.31 6.74 6.09 12.04-0.77 5.55-3.57 9.69-7.5 13.62 0.38 4.57 3.68 7.51 6.5 10.88 1.5 2.12 1.5 2.12 1.5 5.12q1.97 0.99 4 2 0 0.99 0 2 0.95 0.46 1.94 0.94c2.06 1.06 2.06 1.06 3.06 2.06q3 0.06 6 0c3.93-7.38 7.09-15 10.13-22.77q2.51-6.37 5.06-12.73c0.5-1.25 0.5-1.25 1.01-2.53q2.79-7.03 5.8-13.97zm-63 6q-0.04 5.47-0.06 10.94-0.02 1.55-0.03 3.15 0 1.48-0.01 3-0.01 1.37-0.01 2.78c-0.13 2.11-0.13 2.11 1.11 3.13 4.68 0.47 6.94 0.64 11-1.81 2.93-4.67 3-8.83 2-14.19-1.67-3.17-3.75-5.37-7-7q-3.5-0.06-7 0zm63 11q-0.97 2.66-1.94 5.31c-0.54 1.48-0.54 1.48-1.09 2.99q-1.02 2.84-1.97 5.7c2.99 1.49 5.71 1.12 9 1q0.99-0.49 2-1-0.68-2.38-1.37-4.75-0.39-1.32-0.78-2.67c-0.77-2.34-1.69-4.41-2.85-6.58q-0.49 0-1 0z"/>
	<path class="s2" d="m208.81 193.81c1.03-0.02 1.03-0.02 2.08-0.03 8.68-0.03 14.65 2.57 21.11 8.22 5.49 5.64 7.18 11.7 7.44 19.37-0.29 9.83-3.55 16.62-10.29 23.72-6.43 5.72-13.52 7.21-22.01 7.06-7.84-0.56-15.8-2.72-21.39-8.46q-0.86-1.33-1.75-2.69-0.54-0.82-1.09-1.66c-4.71-7.62-5.06-16.88-3.16-25.53 1.85-6.44 5.21-12.47 11.14-15.9 6.13-3.18 10.99-4.09 17.92-4.1zm-15.69 12.19c-3.91 6.96-2.72 17.3-1.5 24.88 2.9 6.56 6.57 11.62 13.31 14.5 4.84 1.46 9.19 1.33 13.82-0.88 5.65-3.69 7.22-9.64 8.62-15.94 1.25-7.99-1.01-14.38-4.37-21.56q-0.99 0-2 0-0.14-0.92-0.29-1.86c-0.89-2.68-1.66-3.13-4.15-4.39-9.5-4.27-16.59-2.05-23.44 5.25z"/>
	<path class="s3" d="m124 195q6.73-0.07 13.45-0.11 2.29-0.01 4.58-0.04 3.29-0.03 6.58-0.05 1.97-0.01 4-0.03c3.12 0.21 4.8 0.56 7.39 2.23q0 0.99 0 2c0.93 0.31 0.93 0.31 1.88 0.63 2.12 1.37 2.12 1.37 3.43 4 1.05 5.13 0.68 9.33-1.62 14.06q-2.73 3.74-5.69 7.31 0.65 0.7 1.31 1.43c0.84 0.93 0.84 0.93 1.69 1.88q0.83 0.92 1.69 1.87c1.31 1.82 1.31 1.82 1.31 4.82q1.48 0.49 3 1c1.75 1.78 1.75 1.78 3.56 3.94 4.24 5.12 4.24 5.12 10.44 7.06q0 1.97 0 4c-14.84 0.93-14.84 0.93-19.35-3.04-3.17-3.76-5.94-7.79-8.63-11.9q-1-1.51-2.02-3.06-0.65-1.18-1.33-2.4c-2.13-2.41-2.13-2.41-8.67-1.6 0.5 8.41 0.5 8.41 1 17q2.46 0.49 5 1 0 1.97 0 4c-7.59 0-15.18 0-23 0q0-1.97 0-4 2.46-0.99 5-2c0-14.85 0-29.7 0-45-2.48-0.99-2.48-0.99-5-2q0-1.48 0-3zm16 6q-0.14 2.33-0.13 4.66 0 1.4-0.01 2.84 0.01 1.48 0.02 3-0.01 1.48-0.02 3 0.01 1.4 0.01 2.84 0 1.3 0 2.63c-0.09 2.03-0.09 2.03 1.13 3.03 4.3 0.53 7.85 0.83 11.44-1.75 0.77-1.11 0.77-1.11 1.56-2.25q0.65-0.86 1.31-1.75c1.08-3.52 0.66-6.77-0.31-10.25-2.11-3.24-3.78-4.85-7-7-4.31-0.58-4.31-0.58-8 1z"/>
	<path class="s4" d="m60 195c7.59 0 15.18 0 23 0q-0.49 1.97-1 4-1.97 0.49-4 1-0.15 7.04-0.22 14.09-0.03 2.39-0.08 4.78c-0.5 12.21-0.5 12.21 4.3 23.13 4.99 3.11 8.34 3.28 14 2q1.14-0.15 2.31-0.31c1.87-0.57 1.87-0.57 2.88-2.56 1.75-4.59 2.02-8.66 2.13-13.52q0.03-1.22 0.06-2.47 0.1-3.91 0.18-7.83 0.07-2.65 0.13-5.3 0.16-6.51 0.31-13.01c-2.48-0.5-2.48-0.5-5-1-0.5-1.49-0.5-1.49-1-3 6.93 0 13.86 0 21 0q0 1.48 0 3-2.95 0.49-6 1-0.01 1.66-0.03 3.36-0.06 6.22-0.18 12.44-0.04 2.68-0.06 5.36-0.04 3.87-0.12 7.75c0 1.18 0 1.18 0 2.39-0.17 6.54-2 11.96-6.57 16.76q-0.98 0.68-1.98 1.38-0.97 0.7-1.96 1.43c-6.44 3.47-14.95 2.7-21.91 1.44-3.9-1.6-6.18-3.37-9.19-6.31q0-0.99 0-2-0.99 0-2 0c-3.53-8.86-3.55-17.75-3.69-27.13q-0.05-2.31-0.1-4.63-0.13-5.62-0.21-11.24c-2.48-0.99-2.48-0.99-5-2q0-1.48 0-3z"/>
	<path class="s5" d="m29 194c2.38 0.31 2.38 0.31 5 1 2.02 3.03 2.88 5.55 4 9q1.38 3.29 2.81 6.56c2.48 5.7 4.76 11.45 6.96 17.26 2.5 6.48 5.04 12.99 8.23 19.18q2.46 0 5 0 0 1.97 0 4c-6.6 0-13.2 0-20 0 0-2.64 0-5.28 0-8-0.8-3.16-0.8-3.16-2-6q-0.99-2.46-2-5c-4.95-0.33-9.9-0.66-15-1q-0.71 2.86-1.44 5.81c-0.77 3.11-1.55 6.15-2.56 9.19q1.97 0.49 4 1 0 1.97 0 4c-6.6 0-13.2 0-20 0q0-1.97 0-4 2.95 0 6 0 2.02-4.99 3.81-10.06c1.77-4.9 3.74-9.69 5.76-14.49 2.06-4.98 4-10.01 5.93-15.04q2.61-6.77 5.5-13.41zm0 17c-1.65 4.95-3.3 9.9-5 15 3.63 0 7.26 0 11 0q-1.14-4.61-2.44-9.19-0.36-1.31-0.74-2.67c-0.61-2.32-0.61-2.32-2.82-3.14z"/>
	<path class="s6" d="m208.81 193.81c1.03-0.02 1.03-0.02 2.08-0.03 6.64-0.02 12.27 1.09 17.55 5.34 1.02 0.81 1.02 0.81 2.06 1.64q0.74 0.61 1.5 1.24-0.49 1.48-1 3-0.55-0.77-1.13-1.56c-1.9-1.8-1.9-1.8-5.06-1.13-1.39 0.34-1.39 0.34-2.81 0.69q0.99 1.97 2 4-1.48 0-3 0c-0.5-1.98-0.5-1.98-1-4q-0.86-0.18-1.75-0.38c-2.25-0.62-2.25-0.62-4.09-1.64-3.9-1.77-7.96-1.53-12.16-0.98-3.55 1.87-6.32 4.02-9 7q-0.86-0.55-1.75-1.13c-2.25-1.16-2.25-1.16-4.5 0-0.87 0.56-0.87 0.56-1.75 1.13q-0.49-1.48-1-3c6.92-7.78 14.59-10.18 24.81-10.19z"/>
	<path class="s7" d="m179 267q1.48 0 3 0c0.99 2.64 1.98 5.28 3 8 0.99-2.64 1.98-5.28 3-8q1.97 0 4 0c0.99 2.64 1.98 5.28 3 8 0.66-2.31 1.32-4.62 2-7q1.97-0.49 4-1c-0.47 6.4-2.15 11.27-5 17-1.92-0.31-1.92-0.31-4-1-1.25-3.06-1.25-3.06-2-6-0.99 2.31-1.98 4.62-3 7-1.81-0.13-1.81-0.13-4-1-3.43-4.96-3.67-10.16-4-16z"/>
	<path class="s8" d="m141 267c3.6 0.42 5.03 1.79 7.25 4.56q0.78 0.96 1.58 1.94 0.58 0.74 1.17 1.5c0.33-2.64 0.66-5.28 1-8q1.97 0.49 4 1c0 4.95 0 9.9 0 15q-1.97 0.49-4 1c-3.17-2.5-5.05-5.5-7-9-0.33 2.97-0.66 5.94-1 9q-1.97-0.49-4-1-0.04-3.72-0.06-7.44c-0.02-1.06-0.02-1.06-0.03-2.14q0-2.71 0.09-5.42 0.49-0.49 1-1z"/>
	<path class="s9" d="m178 3q1.97 0 4 0 0.22 1.34 0.45 2.72c2.41 13.41 6.67 32.4 16.55 42.28q0 1.48 0 3-1.6-0.25-3.25-0.5c-3.78-0.59-3.78-0.59-7.75-0.5q-0.99-1.97-2-4c2.58-0.92 3.59-1.19 6.14-0.02q0.92 0.5 1.86 1.02c-0.65-1.2-0.65-1.2-1.32-2.43-3.62-6.91-6.65-13.79-9.12-21.2q-0.38-1.14-0.78-2.33c-1.14-3.53-1.78-6.29-1.78-10.04q-0.98 0-2 0-0.49 2.95-1 6-0.99-0.99-2-2c0.33-4.11 0.84-8.04 2-12z"/>
	<path class="s10" d="m325 267c5 1 5 1 6.58 2.63q0.61 0.95 1.23 1.93c0.63 0.96 0.63 0.96 1.27 1.94q0.45 0.74 0.92 1.5c0.33-2.64 0.66-5.28 1-8q1.97 0.49 4 1c0 5.28 0 10.56 0 16-5-1-5-1-6.58-2.63q-0.61-0.95-1.23-1.93-0.63-0.96-1.27-1.94-0.45-0.74-0.92-1.5c-0.33 2.31-0.66 4.62-1 7q-1.97 0-4 0c0-5.28 0-10.56 0-16z"/>
	<path class="s11" d="m85 267c2.5 2.06 2.5 2.06 4 5 0.33 3.79 0.2 6.39-1 10-2.95 1.99-5.08 2.22-8.56 1.81q-1.14-0.11-2.32-0.23c-2.57-0.7-3.56-1.43-5.12-3.58-0.68-3.07-0.58-5.92 0-9 3.67-4.7 7.44-4.79 13-4zm-9 6c-0.42 2.5-0.42 2.5 0 5 2.78 2.33 2.78 2.33 5.69 1.63q1.14-0.31 2.31-0.63c0.69-2.35 0.69-2.35 1-5q-0.99-1.48-2-3c-3.46-0.43-4.48-0.52-7 2z"/>
	<path class="s12" d="m94 267c10.49-0.37 10.49-0.37 12.84 1.32 1.78 2.58 1.48 4.63 1.16 7.68-0.99 1.49-0.99 1.49-2 3q0.99 0.99 2 2 0 1.48 0 3c-2.38-0.31-2.38-0.31-5-1q-0.99-1.48-2-3-1.48-0.49-3-1-0.49 2.46-1 5-1.48-0.49-3-1c0-5.28 0-10.56 0-16zm4 4q0 1.97 0 4 2.46 0 5 0 0-1.97 0-4-2.46 0-5 0z"/>
	<path class="s13" d="m243.5 266.38c3.5 0.62 3.5 0.62 6.44 2.62 2.83 4.12 2.7 6.08 2.06 11-1.57 2.12-2.56 2.88-5.12 3.58q-1.14 0.12-2.32 0.23-1.13 0.14-2.31 0.27c-2.63-0.09-4.07-0.61-6.25-2.08-1.21-3.64-1.4-6.18-1-10 2.59-3.69 4.04-4.83 8.5-5.62zm-3.5 4.62c-1.14 4.1-1.14 4.1 0.12 7.94 1.9 1.31 1.9 1.31 4.5 0.81 2.31-0.53 2.31-0.53 3.38-1.75 0.25-2.46 0.25-2.46 0-5-1.9-2.35-1.9-2.35-5.13-2.12q-1.41 0.06-2.87 0.12z"/>
	<path class="s14" d="m315 267c2.94 1.44 2.94 1.44 5 4 0.82 4.71 0.67 7.99-2 12-4.12 1.28-7.92 1.36-12 0-2.87-2.87-2.93-5.01-3-9 1.77-6.64 5.47-7.68 12-7zm-7 5q-0.06 3.5 0 7c3.29 0.8 4.71 1.1 8 0 0.17-2.92 0.17-2.92 0-6-1.83-2.27-1.83-2.27-4.56-2.19-2.39-0.08-2.39-0.08-3.44 1.19z"/>
	<path class="s15" d="m257 267c8.3-0.39 8.3-0.39 11 0 1.88 1.81 1.88 1.81 3 4-0.31 3.25-0.31 3.25-1 6q-0.99 0-2 0 0.74 0.89 1.5 1.81c1.5 2.19 1.5 2.19 1.5 5.19-2.38-0.25-2.38-0.25-5-1-1.31-2.06-1.31-2.06-2-4q-1.48 0-3 0-0.49 2.46-1 5-1.48-0.49-3-1c0-5.28 0-10.56 0-16zm4 4q0 1.97 0 4 2.46 0 5 0 0-1.97 0-4-2.46 0-5 0z"/>
	<path class="s16" d="m6.5 266.9c1.52 0.02 1.52 0.02 3.06 0.04q1.51 0.01 3.07 0.02c1.17 0.02 1.17 0.02 2.37 0.04q0 1.97 0 4c-2.64 0-5.28 0-8 0q0 1.48 0 3c2.64 0 5.28 0 8 0q0 1.48 0 3c-2.64 0.33-5.28 0.66-8 1q0 0.99 0 2c2.64 0 5.28 0 8 0q0 1.97 0 4-2.72 0.04-5.44 0.06-1.5 0.02-3.06 0.04c-2.5-0.1-2.5-0.1-3.5-1.1-0.1-2.51-0.14-4.99-0.12-7.5q-0.01-1.05-0.02-2.13c0.02-6.33 0.02-6.33 3.64-6.47z"/>
	<path class="s17" d="m113 267c3.96 0 7.92 0 12 0q0 1.97 0 4c-2.64 0-5.28 0-8 0q0 1.48 0 3c2.31 0 4.62 0 7 0q0 1.48 0 3-1.45 0.18-2.94 0.38-1.51 0.3-3.06 0.62-0.49 0.99-1 2c2.64 0 5.28 0 8 0q0 1.97 0 4-2.72 0.04-5.44 0.06-1.5 0.02-3.06 0.04c-2.5-0.1-2.5-0.1-3.5-1.1q-0.11-4.03-0.06-8.06 0-1.13 0.01-2.3 0.02-2.82 0.05-5.64z"/>
	<path class="s18" d="m286 267c4.29 0 8.58 0 13 0 0 4.37-0.4 5-3 8.25q-0.83 1.05-1.69 2.14c-0.65 0.8-0.65 0.8-1.31 1.61 2.31 0.66 4.62 1.32 7 2q0 0.99 0 2c-2.76 1.38-5.05 1.1-8.13 1.06q-1.63-0.01-3.32-0.02c-1.26-0.02-1.26-0.02-2.55-0.04q-0.49-0.99-1-2c3.47-4.95 3.47-4.95 7-10-2.97-0.5-2.97-0.5-6-1q0-1.97 0-4z"/>
	<path class="s19" d="m162 267c3.96 0 7.92 0 12 0q0 1.97 0 4c-2.64 0-5.28 0-8 0q0 1.48 0 3c2.31 0 4.62 0 7 0q0 1.48 0 3c-2.31 0-4.62 0-7 0q0 1.48 0 3c2.64 0 5.28 0 8 0q0 1.97 0 4-2.72 0.04-5.44 0.06-1.5 0.02-3.06 0.04c-2.5-0.1-2.5-0.1-3.5-1.1q-0.11-4.03-0.06-8.06 0-1.13 0.01-2.3 0.02-2.82 0.05-5.64z"/>
	<path class="s20" d="m216 267q1.97 0.49 4 1 0 2.96 0 6 2.96 0 6 0c0-2.31 0-4.62 0-7q1.48 0 3 0c1.5 3 1.09 5.79 1.06 9.13q-0.01 1.91-0.02 3.88-0.02 1.47-0.04 2.99-1.97 0-4 0-0.49-2.46-1-5-2.46-0.49-5-1 0 2.96 0 6-1.97 0.49-4 1c0-5.61 0-11.22 0-17z"/>
	<path class="s21" d="m20 267c3.27 0.56 4.83 1.5 7 4q0.62-0.99 1.25-2 0.86-0.99 1.75-2 1.97 0 4 0c-0.61 2.96-1.25 4.38-3 7 0.2 1.91 0.2 1.91 1 4q0.52 1.6 1.06 3.25 0.46 1.35 0.94 2.75-2.46-0.49-5-1-0.49-1.97-1-4-0.99 0-2 0-0.37 0.95-0.75 1.94c-1.25 2.06-1.25 2.06-3.38 2.81-0.92 0.12-0.92 0.12-1.87 0.25 0.56-3.34 1.35-6.03 3-9q-0.74-0.86-1.5-1.75c-1.5-2.25-1.5-2.25-1.5-6.25z"/>
	<path class="s22" d="m351.63 266.88c1.67 0.06 1.67 0.06 3.37 0.12q0.99 1.97 2 4c-2.31 0.33-4.62 0.66-7 1q1.69 0.89 3.44 1.81c3.44 1.82 3.44 1.82 4.56 5.19-1 2.63-1.45 3.72-4 5q-2.32-0.14-4.62-0.44-1.22-0.15-2.48-0.31-0.94-0.12-1.9-0.25 0-1.97 0-4c2.64 0.33 5.28 0.66 8 1q0-0.99 0-2-1.42-0.46-2.87-0.94c-3.13-1.06-3.13-1.06-5.13-2.06 1.03-7.93 1.03-7.93 6.63-8.12z"/>
	<path class="s23" d="m39 267c8.13-0.36 8.13-0.36 11.56 1.06 2.2 2.97 1.83 5.36 1.44 8.94-2.76 2.76-5.21 2.58-9 3q-0.49 1.97-1 4-1.48 0-3 0c0-5.61 0-11.22 0-17zm4 4q0 1.97 0 4 2.46 0 5 0-0.49-1.97-1-4-1.97 0-4 0z"/>
	<path class="s24" d="m273 226c2.88 1.29 4.87 2.66 7 5q0-0.99 0-2c3.34 1.38 5.26 2.79 7 6q-0.31 1.17-0.63 2.38c-0.66 2.56-0.66 2.56 0.67 4.2q1.95 2.23 3.96 4.42 0 0.99 0 2c-2.38-0.25-2.38-0.25-5-1-1.19-2-1.19-2-2-4q-0.99-0.49-2-1-0.99 0.99-2 2c-2.72-3.18-4.86-5.94-6-10q0.49-2 1-4c-0.86-2.22-0.86-2.22-2-4z"/>
	<path class="s25" d="m165 238c3.48 1.54 5.88 2.88 8.56 5.63 2.6 2.53 3.89 3.07 7.44 3.37q0 1.97 0 4-3.34 0.16-6.69 0.25-1.85 0.07-3.76 0.14c-4.12-0.45-5.67-1.47-8.55-4.39-0.81-2.25-0.81-2.25-1-4 3.52 0 4.44 0.7 7 3q0 0.99 0 2 0.99 0 2 0-0.54-0.7-1.09-1.43c-0.7-0.93-0.7-0.93-1.41-1.88-0.7-0.92-0.7-0.92-1.41-1.87-1.09-1.82-1.09-1.82-1.09-4.82z"/>
	<path class="s26" d="m188 50c3.46 2.31 3.58 3.06 4.75 6.88 1.91 5.61 4.58 10.44 7.66 15.49 1.32 2.18 2.5 4.34 3.59 6.63q0.99 0 2 0c2 3 2 3 2 6-4.19-0.6-8.09-1.36-12-3q-0.49-1.48-1-3 2.96 0.49 6 1-0.86-1.48-1.74-3c-2.25-3.95-4.38-7.95-6.45-12q-0.53-1-1.07-2.04c-2.23-4.38-3.31-8.06-3.74-12.96z"/>
	<path class="s27" d="m159 126q0.49 0.99 1 2c-1.26 2.33-2.55 4.49-4 6.69q-0.61 0.94-1.24 1.91c-3.41 5.12-7.13 10.59-12.76 13.4 2.48 0.99 2.48 0.99 5 2q0 0.99 0 2c-2.52 1.26-4.31 1.1-7.13 1.06q-1.35-0.01-2.75-0.02c-1.05-0.02-1.05-0.02-2.12-0.04q0-1.97 0-4c1.5-1.2 1.5-1.2 3.56-2.25 7.57-4.36 13.74-12.35 17.63-20.13 0.81-1.62 0.81-1.62 2.81-2.62z"/>
	<path class="s28" d="m29 194c2.38 0.31 2.38 0.31 5 1 2.43 3.64 2.16 5.71 2 10-3-3.63-3-3.63-3-7-3.22 2.81-4.65 4.68-5 9q0.49 0.49 1 1-0.14 2.54-0.44 5.06-0.15 1.37-0.31 2.79c-0.12 1.06-0.12 1.06-0.25 2.15q-1.48 0.49-3 1-0.49-1.48-1-3-0.99 0.99-2 2c1.32-8.61 3.17-16.14 7-24z"/>
	<path class="s29" d="m126 197c2.87 0.57 3.86 0.86 6 3 0.25 1.93 0.25 1.93 0.26 4.31q0.01 1.33 0.02 2.7-0.01 1.44-0.01 2.92 0 1.48 0 3 0 3.14-0.01 6.28-0.01 4.82 0.01 9.63 0 3.05 0 6.09c0 1.45 0 1.45 0.01 2.92q-0.01 1.34-0.02 2.71 0 1.17-0.01 2.38c-0.25 2.06-0.25 2.06-2.25 5.06-2.63 0.69-2.63 0.69-5 1q0-0.99 0-2 1.97-0.99 4-2 0.11-9.53 0.16-19.06 0.03-3.24 0.07-6.49 0.05-4.66 0.06-9.31 0.03-1.45 0.05-2.94 0-1.34 0-2.73 0.01-1.18 0.02-2.4c-0.45-2.56-1.39-3.44-3.36-5.07z"/>
	<path class="s30" d="m277 195q0 1.48 0 3c-0.99 0.5-0.99 0.5-2 1 0.99 1.49 0.99 1.49 2 3 0.54 2.66 0.73 5.29 1 8q-0.99 0-2 0-0.62-1.39-1.25-2.81c-2.1-3.83-3.59-5.53-7.79-6.81q-2.96-0.75-5.96-1.38 0-0.99 0-2-1.48-0.49-3-1c6.35-0.58 12.62-1.14 19-1z"/>
	<path class="s31" d="m57 267q1.48 0 3 0c0.33 3.96 0.66 7.92 1 12 2.31 0.33 4.62 0.66 7 1q0 1.97 0 4-2.44 0.08-4.88 0.13-1.35 0.03-2.74 0.07c-2.38-0.2-2.38-0.2-4.38-2.2-0.23-2.97-0.23-2.97-0.19-6.5 0.01-1.75 0.01-1.75 0.02-3.53 0.17-2.97 0.17-2.97 1.17-4.97z"/>
	<path class="s32" d="m166 62q0.99 0 2 0c-1.31 4.43-3.04 7.96-5.56 11.81q-0.93 1.43-1.88 2.9c-1.56 2.29-1.56 2.29-2.56 3.29 2.76-0.52 5.33-1.11 8-2-0.5 1.81-0.5 1.81-2 4-4.04 2.13-7.43 3-12 3 0.6-3.53 1.97-5.46 4.25-8.19 3.09-3.83 5.52-7.71 7.8-12.06 0.95-1.75 0.95-1.75 1.95-2.75z"/>
	<path class="s33" d="m175 147q0.49 0 1 0c0 7.59 0 15.18 0 23 2.64 0 5.28 0 8 0 0-7.26 0-14.52 0-22q0.49 0 1 0c0.95 8.35 1.11 16.6 1 25-3.96 0-7.92 0-12 0 0.33-8.58 0.66-17.16 1-26z"/>
	<path class="s34" d="m18 236c1.13 1.63 1.13 1.63 2 4-0.88 3.25-0.88 3.25-2 6q1.97 0.49 4 1 0 1.97 0 4c-4.62 0-9.24 0-14 0q-0.49-1.48-1-3 0.99 0 2 0 0.49-1.48 1-3 1.48 0.99 3 2c2.3-3.56 3.77-6.95 5-11z"/>
	<path class="s35" d="m72 272q0.99 1.97 2 4 0.99-1.48 2-3 0.49 2.46 1 5c2.31 0.33 4.62 0.66 7 1q0-0.99 0-2 1.48-0.49 3-1 0.49 2.96 1 6c-3.07 1.81-5.03 2.23-8.56 1.81q-1.14-0.11-2.32-0.23c-2.56-0.7-3.57-1.43-5.12-3.58-0.39-2.73-0.14-5.23 0-8z"/>
	<path class="s36" d="m314 221q0.99 0.49 2 1 0 0.99 0 2 1.48 0 3 0 0.99 2.96 2 6-2.46 0-5 0 0.49 0.99 1 2-0.42 3.01-1 6-0.99 0-2 0-0.99 1.97-2 4c0.52-2.76 1.11-5.33 2-8q-1.48 0.49-3 1 0.17-2.38 0.38-4.75 0.1-1.32 0.21-2.67c0.41-2.57 1.12-4.34 2.41-6.58z"/>
	<path class="s37" d="m186 146q1.04 0.23 2.12 0.46 4.84 1.03 9.69 2.04 1.64 0.36 3.34 0.72c6.36 1.32 12.21 2.01 18.71 1.67 2.14 0.11 2.14 0.11 4.14 2.11q-1.97 0-4 0 0 0.99 0 2c-26.83-2.96-26.83-2.96-34-7q0-0.99 0-2z"/>
	<path class="s38" d="m4 269c2.64 0 5.28 0 8 0q0 0.49 0 1-2.46 0-5 0 0 1.97 0 4c2.64 0 5.28 0 8 0q0 1.48 0 3c-2.64 0.33-5.28 0.66-8 1q0 2.46 0 5-1.48-0.49-3-1c0-4.29 0-8.58 0-13z"/>
	<path class="s39" d="m315 267q0 1.48 0 3-2.96 0-6 0-0.06 1.04-0.11 2.12-0.1 1.36-0.2 2.75-0.09 1.36-0.18 2.75c-0.51 2.38-0.51 2.38-3.51 4.38-2.03-4.06-2.3-6.63-1-11 3.07-4.48 5.79-4.4 11-4z"/>
	<path class="s40" d="m230 235c0 2.65-0.37 4.47-1 7q0 1.48 0 3c-4.93 4.3-9.48 6.37-16 7-3.06-0.38-3.06-0.38-5-1q0-0.49 0-1 1.19-0.16 2.41-0.33c5.74-0.86 10.62-1.63 15.59-4.67q0-1.48 0-3-1.97 1.48-4 3-0.49-0.99-1-2c0.69-2.06 0.69-2.06 2-4 1.94-0.56 1.94-0.56 4-1 1.73-1.48 1.73-1.48 3-3z"/>
	<path class="s41" d="m154 107c0 3 0 3-1 7 4.95-1.49 4.95-1.49 10-3q-0.49 1.48-1 3c-3.02 1.2-3.02 1.2-6.81 2.25-1.87 0.53-1.87 0.53-3.77 1.08-3.08 0.6-4.57 0.79-7.42-0.33 2.81-4.75 5.25-7.19 10-10z"/>
	<path class="s42" d="m226 241q0.49 1.97 1 4c-8.52 5.73-16.15 5.55-26 5 2.55-2.55 3.77-2.31 7.31-2.5 3.96-0.22 7.15-0.64 10.69-2.5q0.49-1.48 1-3 0.99 0.49 2 1 0.99 0 2 0 0.99-0.99 2-2z"/>
	<path class="s43" d="m48 268q1.97 0.99 4 2c0.13 3.38 0.13 3.38 0 7-2.76 2.76-5.21 2.58-9 3q-0.49 1.97-1 4-1.48 0-3 0c-0.36-5.4-0.36-5.4 1.13-7.88 2.68-1.61 4.81-1.39 7.87-1.12q0.49 0.49 1 1c1.21-3.62 0.54-4.64-1-8z"/>
	<path class="s44" d="m189 36q1.48 0 3 0 0.5 1.04 1.02 2.12 0.67 1.36 1.35 2.75 0.66 1.36 1.34 2.75c1.2 2.48 1.2 2.48 3.29 4.38q0 1.48 0 3-1.6-0.25-3.25-0.5c-3.78-0.59-3.78-0.59-7.75-0.5q-0.99-1.97-2-4c2.58-0.92 3.59-1.19 6.14-0.02q0.92 0.5 1.86 1.02-0.54-0.93-1.09-1.9-0.7-1.22-1.41-2.48-0.69-1.21-1.41-2.46c-1.09-2.16-1.09-2.16-1.09-4.16z"/>
	<path class="s45" d="m277 267q1.48 0 3 0c0 5.61 0 11.22 0 17q-1.97-0.49-4-1-0.04-3.72-0.06-7.44c-0.02-1.06-0.02-1.06-0.03-2.14q0-2.71 0.09-5.42 0.49-0.49 1-1z"/>
	<path class="s46" d="m327.31 193.88c3.3 1.37 3.48 2.24 4.88 5.43q0.91 2.34 1.81 4.69 0.56 1.04 1.14 2.12c1.18 2.57 0.6 4.22-0.14 6.88-3.29-3.29-4.23-7.8-5.78-12.13-0.9-2.98-0.9-2.98-3.22-3.87q-0.99 1.97-2 4-0.06-3 0-6c1-1 1-1 3.31-1.12z"/>
	<path class="s47" d="m139 227q2.46 0 5 0-1.48 0.99-3 2c-0.06 2.97 0.04 5.69 0.31 8.63q0.09 1.19 0.19 2.42 0.23 2.98 0.5 5.95 2.46 0.49 5 1 0 1.97 0 4c-2.31 0.31-2.31 0.31-5 0-3.88-4.47-3.35-9.23-3.19-14.81q0.02-1.32 0.04-2.68 0.06-3.26 0.15-6.51z"/>
	<path class="s48" d="m140 269c2.48 0.5 2.48 0.5 5 1-0.33 4.62-0.66 9.24-1 14q-1.97-0.49-4-1c0-4.62 0-9.24 0-14z"/>
	<path class="s49" d="m257 268q0.99 0 2 0 0.49 0.99 1 2 0.99 0.49 2 1-0.49 1.97-1 4 1.48 0.49 3 1 0 1.48 0 3-1.48 0-3 0-0.49 2.46-1 5-1.48-0.49-3-1c0-4.95 0-9.9 0-15z"/>
	<path class="s50" d="m285 236q1.48 0 3 0 0 1.48 0 3 1.97 0.99 4 2 0 0.99 0 2 0.99 0.49 2 1-0.49 1.48-1 3c2.08 0.55 3.84 1 6 1q0 0.99 0 2c-7.43 0.29-7.43 0.29-11-2q1.48 0 3 0-0.65-0.79-1.31-1.61c-0.84-1.06-0.84-1.06-1.69-2.14q-0.83-1.04-1.69-2.11c-1.31-2.14-1.31-2.14-1.31-6.14z"/>
	<path class="s51" d="m165 45q0.49 0.99 1 2c1.98-0.66 3.96-1.32 6-2 1.47 5.47 0.44 8.12-2 13-1.53-3.07-0.55-5.7 0-9q-0.83 0.49-1.69 1c-2.61 1.13-4.49 1.16-7.31 1 0.31-1.88 0.31-1.88 1-4q1.48-0.99 3-2z"/>
	<path class="s52" d="m198 121q0.99 0 2 0 0.67 1.3 1.36 2.63c3.73 7.38 3.73 7.38 8.64 14q0.99 1.16 2 2.37-0.49 1.48-1 3c-5.8-5.12-9.9-11.93-13-19q0-1.48 0-3z"/>
	<path class="s53" d="m26 205c1.52 1.18 1.52 1.18 3 3 0.07 2.48 0.07 2.48-0.31 5.19-0.18 1.35-0.18 1.35-0.37 2.73q-0.16 1.02-0.32 2.08-1.48 0.49-3 1-0.49-1.48-1-3-0.99 0.99-2 2 0.89-5.52 2-11 0.99 0 2 0 0-0.99 0-2z"/>
	<path class="s54" d="m209.25 193.75c1.06-0.01 1.06-0.01 2.14-0.02 3.75 0.01 5.42 0.14 8.61 2.27-3 2-3 2-5 3-2.62-0.94-2.62-0.94-5-2q0-0.49 0-1c-9.2 0.48-9.2 0.48-18 3 3.85-5.78 10.87-5.32 17.25-5.25z"/>
	<path class="s55" d="m319 226c4.62 0 9.24 0 14 0q0 0.49 0 1c-0.96 0.07-0.96 0.07-1.93 0.15q-1.24 0.11-2.51 0.23c-1.23 0.1-1.23 0.1-2.49 0.21-1.03 0.2-1.03 0.2-2.07 0.41q-0.49 0.99-1 2c3.63 0 7.26 0 11 0q0.49 1.97 1 4-0.99-0.99-2-2c-2.57-0.31-5.05-0.51-7.63-0.63q-1.05-0.05-2.14-0.11-2.61-0.14-5.23-0.26-0.99 1.97-2 4-0.49-2.46-1-5 1.97-0.99 4-2 0-0.99 0-2z"/>
	<path class="s56" d="m261 205q0.49 0 1 0c0.33 5.61 0.66 11.22 1 17 3.63 0 7.26 0 11 0q-0.49 0.99-1 2-2.97 0.04-5.94 0.06-1.64 0.02-3.34 0.04c-2.72-0.1-2.72-0.1-3.72-1.1q-0.15-4.25-0.12-8.5-0.01-1.19-0.02-2.42c0.01-5.95 0.01-5.95 1.14-7.08z"/>
	<path class="s57" d="m197 111q1.54 0.52 3.13 1.06c3.73 1.2 3.73 1.2 6.93 0.31 2.94-0.37 2.94-0.37 6.32 1.57q1.29 1.01 2.62 2.06-0.49 0.99-1 2c-5.81-0.53-11.74-1.31-17-4q-0.49-1.48-1-3z"/>
	<path class="s58" d="m257 267c3.63 0 7.26 0 11 0 0.33 2.31 0.66 4.62 1 7q-0.49-0.99-1-2c-1.89-0.68-1.89-0.68-4.06-1.13q-1.94-0.43-3.94-0.87c0 3.3 0 6.6 0 10q-0.49 0-1 0c0-3.96 0-7.92 0-12q-0.99-0.49-2-1z"/>
	<path class="s59" d="m96 246q1.48 0.99 3 2c-3.42 2.28-4.68 2.22-8.69 2.13-1.49-0.03-1.49-0.03-3.01-0.06q-1.13-0.03-2.3-0.07-0.49 0.99-1 2-2.46-0.49-5-1 0-1.48 0-3c3.95-0.99 7.27-0.96 11.31-0.56 1.61 0.15 1.61 0.15 3.24 0.31 1.21 0.12 1.21 0.12 2.45 0.25q0-0.99 0-2z"/>
	<path class="s60" d="m154 217q0.99 0 2 0c-0.66 2.31-1.32 4.62-2 7q0.86 0.09 1.75 0.19c3.14 1.13 4.34 3.15 6.25 5.81q-0.49 0.99-1 2c-1.65-1.65-3.3-3.3-5-5-0.99 0.5-0.99 0.5-2 1q0-0.99 0-2c-1.98 0.99-1.98 0.99-4 2q-0.49-2.46-1-5 1.48-0.49 3-1c1.22-2.5 1.22-2.5 2-5z"/>
	<path class="s61" d="m223 196q-0.95 0.62-1.94 1.25c-2.27 1.93-2.66 2.86-3.06 5.75q-1.2-0.71-2.44-1.44c-4.23-1.85-7.99-2.27-12.56-2.56q0-0.99 0-2 6.5 0 13 0 0.99-0.52 2-1.06c2-0.94 2-0.94 5 0.06z"/>
	<path class="s62" d="m323 202q0.49 1.48 1 3-0.49 0.99-1 2 0.99 0 2 0c-0.33 3.63-0.66 7.26-1 11q-1.48 0-3 0c0.33-2.31 0.66-4.62 1-7-0.99 0.5-0.99 0.5-2 1 0-2.31 0-4.62 0-7q1.48-0.49 3-1 0-0.99 0-2z"/>
	<path class="s63" d="m137 196c4.95 0 9.9 0 15 0q-1.48 0.49-3 1 0 0.99 0 2 1.48 0.49 3 1-0.49 0.99-1 2c-3.3-0.66-6.6-1.32-10-2q0-1.48 0-3-1.97-0.49-4-1z"/>
	<path class="s37" d="m174 22q0.99 0 2 0c-1.25 7.07-3.56 12.71-7 19q-0.49 0-1 0c0.52-5.8 1.76-14.76 6-19z"/>
	<path class="s64" d="m59 269q0.29 2.94 0.56 5.88 0.16 1.62 0.32 3.3c0.12 2.82 0.12 2.82-0.88 4.82q1.97 0.49 4 1c-2.38 0.13-2.38 0.13-5 0-2-2-2-2-2.2-4.82q0.04-1.63 0.08-3.3 0.02-1.64 0.05-3.33 0.03-1.25 0.07-2.55c2-1 2-1 3-1z"/>
	<path class="s65" d="m132 239c2 2 2 2 2.27 3.88q-0.01 1.04-0.02 2.12 0.01 1.05 0.02 2.13c-0.27 1.87-0.27 1.87-2.27 3.87-2.69 0.27-5.29 0.09-8 0q0.49-1.97 1-4 0.49 0.49 1 1 1.97-0.49 4-1c0.66-2.64 1.32-5.28 2-8z"/>
	<path class="s66" d="m260 227c3.3 0 6.6 0 10 0q0 0.49 0 1c-2.31 0.33-4.62 0.66-7 1-0.33 5.61-0.66 11.22-1 17-2-2-2-2-2.2-5.91q0.02-2.36 0.08-4.71 0.01-1.2 0.02-2.43 0.04-2.98 0.1-5.95z"/>
	<path class="s67" d="m291 278q0 1.48 0 3 2.96 0 6 0-0.49 1.48-1 3c-3.3 0-6.6 0-10 0q-0.49-0.99-1-2c3.75-4 3.75-4 6-4z"/>
	<path class="s68" d="m113 268c3.3 0.33 6.6 0.66 10 1q0 0.49 0 1c-2.31 0-4.62 0-7 0 0 3.96 0 7.92 0 12q-0.99 0-2 0c-1.05-3.15-1.1-5.39-1.06-8.69q0.01-1.48 0.02-3.01 0.02-1.13 0.04-2.3z"/>
	<path class="s69" d="m17 223q1.48 0 3 0-2.79 8.57-6 17-1.48-0.49-3-1 0.52-1.35 1.06-2.74c0.68-1.77 0.68-1.77 1.38-3.57q0.67-1.75 1.37-3.55 1.16-3.05 2.19-6.14z"/>
	<path class="s70" d="m98 275q1.97 0 4 0 0.99 1.48 2 3 1.05 0.74 2.13 1.5 0.92 0.74 1.87 1.5 0 1.48 0 3c-2.38-0.31-2.38-0.31-5-1q-0.99-1.48-2-3-1.48-0.49-3-1 0-1.97 0-4z"/>
	<path class="s71" d="m308 279c2.64 0 5.28 0 8 0q0 0.99 0 2 0.99 0.99 2 2-2.15 0.29-4.31 0.56-1.2 0.16-2.43 0.32c-2.26 0.12-2.26 0.12-5.26-0.88q0.99-1.97 2-4z"/>
	<path class="s72" d="m326 267c1.88 0.31 1.88 0.31 4 1 2 3 2 3 1.63 5.69q-0.31 1.14-0.63 2.31-0.49 0-1 0c-0.33 2.31-0.66 4.62-1 7q-1.97 0-4 0 0.49-0.99 1-2 0.99 0.49 2 1c0-4.29 0-8.58 0-13q-0.99 0-2 0 0-0.99 0-2z"/>
	<path class="s73" d="m86 276c2 3 2 3 2 6-3.4 2.09-6.05 2.18-10 2q1.48-0.49 3-1 0-0.99 0-2-0.99-0.49-2-1 2.46-0.49 5-1 0-0.99 0-2 0.99-0.49 2-1z"/>
	<path class="s74" d="m247 270q0.99 0 2 0c1.85 3.13 2.62 5.38 2 9-2.19 2.81-2.19 2.81-5 5-2.81 0.31-2.81 0.31-5 0q0.92-0.09 1.88-0.19c2.3-0.63 2.3-0.63 3.37-2.87 0.96-3.78 0.88-7.04 0.75-10.94z"/>
	<path class="s75" d="m219 243q0 1.48 0 3c-4.57 2.44-9.93 3.01-15 2-1.8-2.02-1.8-2.02-3-4 1.24 0.25 1.24 0.25 2.5 0.5 8.06 1.2 8.06 1.2 15.5-1.5z"/>
	<path class="s76" d="m173 245c2.64 0.66 5.28 1.32 8 2q0 1.97 0 4c-4.29 0-8.58 0-13 0q0-0.99 0-2c2.64 0.33 5.28 0.66 8 1q-1.48-2.46-3-5z"/>
	<path class="s77" d="m39 267c2.64 0.66 5.28 1.32 8 2q0 0.49 0 1-2.46 0.49-5 1 0 2.96 0 6-1.48 0.49-3 1c0-3.63 0-7.26 0-11z"/>
	<path class="s78" d="m104 235c1 3 1 3 0.31 5.44-1.41 2.76-3.01 4.49-5.31 6.56q-1.97-0.99-4-2 0.99-0.99 2-2 1.48 0 3 0 0.43-0.86 0.87-1.75 1.57-3.13 3.13-6.25z"/>
	<path class="s79" d="m167 81c1.11 2.8 1.04 3.9 0 6.8q-0.71 1.45-1.44 2.95-0.7 1.47-1.43 2.98-0.56 1.12-1.13 2.27-0.99-1.48-2-3c0.61-2.66 0.61-2.66 1.75-5.63q0.55-1.46 1.11-2.97c1.14-2.4 1.14-2.4 3.14-3.4z"/>
	<path class="s80" d="m198 267q1.48 0 3 0c-0.75 7.63-0.75 7.63-3 11q0-1.97 0-4-0.99 0-2 0c0.88-5.88 0.88-5.88 2-7z"/>
	<path class="s81" d="m52 241q2.06 1.94 4 4 0 0.99 0 2 2.46 0 5 0 0 1.97 0 4c-2.31 0-4.62 0-7 0q0.99-0.49 2-1-0.99-1.39-2-2.81c-2-3.19-2-3.19-2-6.19z"/>
	<path class="s82" d="m29 275c4.43 5.14 4.43 5.14 5 9-2.38-0.19-2.38-0.19-5-1-1.44-2.38-1.44-2.38-2-5q0.99-1.48 2-3z"/>
	<path class="s67" d="m217 271q0.99 0 2 0c0 3.63 0 7.26 0 11q-1.48 0-3 0-0.04-2.47-0.06-4.94-0.02-1.37-0.04-2.77c0.1-2.29 0.1-2.29 1.1-3.29z"/>
	<path class="s83" d="m76.38 268.8q1.35 0.04 2.75 0.07c1.36 0.03 1.36 0.03 2.75 0.06q1.05 0.03 2.12 0.07 0 0.49 0 1-2.95 0-6 0-0.49 1.48-1 3-0.99 0-2 0-0.49 1.97-1 4-0.49 0-1 0c-0.62-2.88-0.62-2.88-1-6 2-2 2-2 4.38-2.2z"/>
	<path class="s84" d="m286 267c4.29 0 8.58 0 13 0q0.49 1.48 1 3-1.48 0-3 0 0-0.99 0-2-2.96 0.49-6 1 0 0.99 0 2-2.46 0-5 0 0-1.97 0-4z"/>
	<path class="s85" d="m186 146c4.62 0.99 9.24 1.98 14 3q-0.49 0.99-1 2-2.13-0.17-4.25-0.38-1.18-0.1-2.39-0.21c-2.45-0.43-4.21-1.2-6.36-2.41q0-0.99 0-2z"/>
	<path class="s86" d="m282 241c4.88 4.75 4.88 4.75 6 7q-1.48 0.49-3 1c-1.65-1.65-3.3-3.3-5-5q0.99-1.48 2-3z"/>
	<path class="s87" d="m258 196c4.62 0 9.24 0 14 0q-1.97 0.49-4 1 0 0.99 0 2c-2.31 0-4.62 0-7 0q0-0.99 0-2-1.48-0.49-3-1z"/>
	<path class="s88" d="m7 274c2.64 0 5.28 0 8 0q0 1.48 0 3c-5.75 1.13-5.75 1.13-8 0q0-1.48 0-3z"/>
	<path class="s89" d="m242.63 268.88c1.67 0.06 1.67 0.06 3.37 0.12q0 0.49 0 1-1.11 0.03-2.25 0.06c-3.18 1.09-3.48 1.68-5.06 4.5q-0.83 1.7-1.69 3.44-0.49 0-1 0c0.99-8.93 0.99-8.93 6.63-9.12z"/>
	<path class="s90" d="m162 202q1.48 0.49 3 1c1.13 7.63 1.13 7.63 0 11q-0.99 0-2 0 0.03-1.85 0.06-3.75c0.01-2.91-0.13-5.46-1.06-8.25z"/>
	<path class="s91" d="m354 278q0.99 0 2 0-0.49 1.97-1 4c-2.25 0.75-2.25 0.75-5 1-2.31-1.94-2.31-1.94-4-4 2.64 0.33 5.28 0.66 8 1q0-0.99 0-2z"/>
	<path class="s92" d="m264 279c2.38-0.13 2.38-0.13 5 0 2 2 2 2 2 5-2.38-0.25-2.38-0.25-5-1-1.31-2.06-1.31-2.06-2-4z"/>
	<path class="s93" d="m23 277c2 2 2 2 2 5q-0.99 0.99-2 2-1.48 0-3 0c0.75-4.75 0.75-4.75 3-7z"/>
	<path class="s94" d="m181 272c3 3.63 3 3.63 3 7q0.99 0 2 0 0 0.99 0 2-1.97 0-4 0c-2.09-4.43-2.09-4.43-1.63-7.31q0.31-0.83 0.63-1.69z"/>
	<path class="s95" d="m264 247q1.97 0 4 0 0 1.97 0 4c-3.3 0-6.6 0-10 0 4-2 4-2 6-2q0-0.99 0-2z"/>
	<path class="s96" d="m178 3q1.97 0 4 0c0.33 2.64 0.66 5.28 1 8q-0.99-0.49-2-1 0-1.97 0-4-0.98 0-2 0 0 1.48 0 3-0.99 0-2 0 0.49-2.95 1-6z"/>
	<path class="s97" d="m285 236q1.48 0 3 0 0 1.48 0 3 1.97 0.99 4 2-1.48 0.99-3 2-1.48-0.49-3-1-0.49-2.96-1-6z"/>
	<path class="s98" d="m220 195c-1.63 1.71-2.87 2.93-5 4-2.63-0.94-2.63-0.94-5-2 1-2 1-2 2.75-2.69 2.64-0.36 4.68 0.05 7.25 0.69z"/>
	<path class="s99" d="m136 152c3.63 0 7.26 0 11 0q0 0.99 0 2c-2.8 1.4-4.9 1.25-8 1q-1.48-1.48-3-3z"/>
	<path class="s100" d="m327 208c2.31 2.31 2.5 3.48 3.13 6.63q0.25 1.21 0.5 2.47c0.18 0.94 0.18 0.94 0.37 1.9q-1.48 0-3 0c-2.13-7.63-2.13-7.63-1-11z"/>
	<path class="s101" d="m218 198c1.98 0.99 1.98 0.99 4 2q0 1.48 0 3c0.95 2.15 0.95 2.15 2 4q-1.48 0-3 0-0.18-0.95-0.38-1.94c-0.3-1.02-0.3-1.02-0.62-2.06q-0.99-0.49-2-1 0-1.97 0-4z"/>
	<path class="s102" d="m224 153q-1.97 0-4 0 0 0.99 0 2-3.52-0.39-7-1-0.49-0.99-1-2 2.15-0.33 4.31-0.63c1.2-0.17 1.2-0.17 2.43-0.35 2.26-0.02 2.26-0.02 5.26 1.98z"/>
	<path class="s103" d="m186 277q1.48 0.99 3 2-0.99 2.46-2 5-1.97-0.49-4-1 0-0.99 0-2 1.48 0 3 0 0-1.97 0-4z"/>
	<path class="s104" d="m241 279q2.96 0 6 0c-0.69 1.94-0.69 1.94-2 4-2.44 0.88-2.44 0.88-5 1q-1.48-0.99-3-2 1.97 0 4 0 0-1.48 0-3z"/>
	<path class="s105" d="m95 276c1.56 1.19 1.56 1.19 3 3-0.31 2.69-0.31 2.69-1 5q-1.48-0.49-3-1-0.06-3 0-6 0.49-0.49 1-1z"/>
	<path class="s106" d="m226 267q1.48 0 3 0c1.35 2.71 1.07 5.01 1 8q-0.99-1.48-2-3-0.99 0.99-2 2c0-2.31 0-4.62 0-7z"/>
	<path class="s107" d="m162 215q0.99 0 2 0c-0.54 3.8-2.2 5.47-5 8q-0.99-0.99-2-2 2.43-3.06 5-6z"/>
	<path class="s59" d="m205 107q1.48 0 3 0c1.61 1.75 1.61 1.75 3.19 4q0.79 1.11 1.6 2.25 0.6 0.86 1.21 1.75c-3.4-1.63-6.17-3.48-9-6q0-0.99 0-2z"/>
	<path class="s108" d="m41 277c2 3 2 3 1.63 5.19q-0.31 0.89-0.63 1.81-1.48 0-3 0 0-2.96 0-6 0.99-0.49 2-1z"/>
	<path class="s109" d="m317 274q0.99 0 2 0c1.13 5.75 1.13 5.75 0 8q-1.97-0.49-4-1c0.66-2.31 1.32-4.62 2-7z"/>
	<path class="s110" d="m124 195c2.64 0.33 5.28 0.66 8 1q-0.49 1.97-1 4-0.89-0.49-1.81-1c-2.24-1.21-2.24-1.21-5.19-1q0-1.48 0-3z"/>
	<path class="s111" d="m212 143c1.81 0.13 1.81 0.13 4 1 1.75 3.06 1.75 3.06 3 6-2.87-1.29-4.98-2.57-7-5q0-0.99 0-2z"/>
	<path class="s112" d="m104 279q1.97 0.99 4 2 0 1.48 0 3-2.46-0.49-5-1 0.49-1.97 1-4z"/>
	<path class="s113" d="m98 195c2.97 0.33 5.94 0.66 9 1q-0.49 1.48-1 3c-2.31-0.33-4.62-0.66-7-1q-0.49-1.48-1-3z"/>
	<path class="s114" d="m165 78q0 1.48 0 3c-3.46 1.49-3.46 1.49-7 3q-0.49-0.99-1-2c2.64-1.32 5.28-2.64 8-4z"/>
	<path class="s115" d="m308 279c3 1 3 1 4 3q-0.49 0.99-1 2-2.46-0.49-5-1 0.99-1.97 2-4z"/>
	<path class="s116" d="m147 274q3.06 2.43 6 5 0 0.99 0 2-2.46-0.49-5-1-0.49-2.96-1-6z"/>
	<path class="s117" d="m264 275q1.97 0 4 0 0 1.97 0 4-2.46-0.49-5-1 0.49-1.48 1-3z"/>
	<path class="s118" d="m229 277c0.93 3.01 1.04 3.87 0 7q-1.48-0.49-3-1 0-2.46 0-5c0.99 0.5 0.99 0.5 2 1q0.49-0.99 1-2z"/>
	<path class="s119" d="m142 272c2 2 2 2 2.13 5.63q-0.07 1.66-0.13 3.37-0.99-0.49-2-1c-0.69-3.5-0.69-3.5-1-7q0.49-0.49 1-1z"/>
	<path class="s120" d="m124 247c1.98 0.66 3.96 1.32 6 2q0 0.99 0 2-2.95 0-6 0 0-1.97 0-4z"/>
	<path class="s121" d="m154 217q0.99 0 2 0c-1.07 2.92-1.78 4.78-4 7q-1.48-0.49-3-1 1.48-0.49 3-1c1.22-2.5 1.22-2.5 2-5z"/>
	<path class="s122" d="m33 215c3 3.63 3 3.63 3 7q-1.48 0-3 0c-1.13-4.75-1.13-4.75 0-7z"/>
	<path class="s123" d="m157 152q0 0.49 0 1c-3.3 0.33-6.6 0.66-10 1q0-0.99 0-2c3.69-1.23 6.21-0.64 10 0z"/>
</svg>